<svg width="358" height="28" viewBox="0 0 358 28" fill="none" xmlns="http://www.w3.org/2000/svg">
<line opacity="0.2" x1="-4.35789e-08" y1="26.7552" x2="358" y2="26.7552" stroke="black"/>
<path d="M5.13068 3.81818V11.0966C5.13068 12.3643 4.52415 13.0455 3.46023 13.0455C2.49077 13.0455 1.78977 12.4787 1.78977 11.6136H0.576705C0.576705 13.1797 1.78977 14.1392 3.46023 14.1392C5.23011 14.1392 6.36364 13.0504 6.36364 11.0966V3.81818H5.13068ZM10.9226 14.179C12.255 14.179 12.951 13.4631 13.1896 12.9659H13.2493V14H14.4226V8.96875C14.4226 6.54261 12.5732 6.2642 11.5987 6.2642C10.4453 6.2642 9.13281 6.66193 8.53622 8.05398L9.64986 8.4517C9.90838 7.89489 10.5199 7.2983 11.6385 7.2983C12.7173 7.2983 13.2493 7.87003 13.2493 8.84943V8.8892C13.2493 9.45597 12.6726 9.40625 11.2805 9.58523C9.86364 9.76918 8.31747 10.0824 8.31747 11.8324C8.31747 13.3239 9.47088 14.179 10.9226 14.179ZM11.1016 13.125C10.1669 13.125 9.49077 12.7074 9.49077 11.892C9.49077 10.9972 10.3061 10.7188 11.2209 10.5994C11.718 10.5398 13.0504 10.4006 13.2493 10.1619V11.2358C13.2493 12.1903 12.4936 13.125 11.1016 13.125ZM19.6664 14.1591C21.3567 14.1591 22.4703 13.125 22.6692 11.7727H21.4959C21.2772 12.608 20.5811 13.1051 19.6664 13.1051C18.2743 13.1051 17.3794 11.9517 17.3794 10.1818C17.3794 8.4517 18.2942 7.31818 19.6664 7.31818C20.7005 7.31818 21.3169 7.95455 21.4959 8.65057H22.6692C22.4703 7.21875 21.2573 6.2642 19.6465 6.2642C17.5783 6.2642 16.2061 7.89489 16.2061 10.2216C16.2061 12.5085 17.5186 14.1591 19.6664 14.1591ZM30.7679 16.8636V6.36364H29.6344V7.5767H29.4952C29.2367 7.17898 28.7793 6.2642 27.2878 6.2642C25.3588 6.2642 24.0265 7.79545 24.0265 10.2017C24.0265 12.6278 25.3588 14.1591 27.2679 14.1591C28.7395 14.1591 29.2367 13.2443 29.4952 12.8267H29.5946V16.8636H30.7679ZM29.6145 10.1818C29.6145 11.9119 28.839 13.1051 27.427 13.1051C25.9554 13.1051 25.1998 11.8125 25.1998 10.1818C25.1998 8.57102 25.9355 7.31818 27.427 7.31818C28.8588 7.31818 29.6145 8.47159 29.6145 10.1818ZM37.7282 10.8778C37.7282 12.3097 36.6344 12.9659 35.7594 12.9659C34.785 12.9659 34.089 12.25 34.089 11.1364V6.36364H32.9157V11.2159C32.9157 13.1648 33.9498 14.0994 35.3816 14.0994C36.535 14.0994 37.2907 13.483 37.6486 12.7074H37.7282V14H38.9015V6.36364H37.7282V10.8778ZM44.2521 14.1591C45.8033 14.1591 46.9368 13.3835 47.2947 12.2301L46.1612 11.9119C45.8629 12.7074 45.1719 13.1051 44.2521 13.1051C42.875 13.1051 41.9254 12.2152 41.8707 10.5795H47.4141V10.0824C47.4141 7.23864 45.7237 6.2642 44.1328 6.2642C42.0646 6.2642 40.6925 7.89489 40.6925 10.2415C40.6925 12.5881 42.0447 14.1591 44.2521 14.1591ZM41.8707 9.56534C41.9503 8.37713 42.7905 7.31818 44.1328 7.31818C45.4055 7.31818 46.2209 8.27273 46.2209 9.56534H41.8707ZM54.608 8.07386C54.2401 6.99006 53.4148 6.2642 51.9034 6.2642C50.2926 6.2642 49.0994 7.17898 49.0994 8.47159C49.0994 9.52557 49.7259 10.2315 51.1278 10.5597L52.4006 10.858C53.1712 11.0369 53.5341 11.4048 53.5341 11.9318C53.5341 12.5881 52.8381 13.125 51.7443 13.125C50.7848 13.125 50.1832 12.7124 49.9744 11.892L48.8608 12.1705C49.1342 13.468 50.2031 14.1591 51.7642 14.1591C53.5391 14.1591 54.7472 13.1896 54.7472 11.8722C54.7472 10.8082 54.081 10.1371 52.7188 9.80398L51.5852 9.52557C50.6804 9.30185 50.2727 8.99858 50.2727 8.41193C50.2727 7.75568 50.9688 7.27841 51.9034 7.27841C52.9276 7.27841 53.3501 7.84517 53.554 8.37216L54.608 8.07386ZM68.8031 7C68.4252 4.91193 66.7548 3.67898 64.7065 3.67898C62.1014 3.67898 60.2122 5.6875 60.2122 8.90909C60.2122 12.1307 62.1014 14.1392 64.7065 14.1392C66.7548 14.1392 68.4252 12.9062 68.8031 10.8182H67.5701C67.2718 12.2301 66.0588 12.9858 64.7065 12.9858C62.8571 12.9858 61.4054 11.554 61.4054 8.90909C61.4054 6.2642 62.8571 4.83239 64.7065 4.83239C66.0588 4.83239 67.2718 5.58807 67.5701 7H68.8031ZM73.7386 14.1591C75.8068 14.1591 77.1989 12.5881 77.1989 10.2216C77.1989 7.83523 75.8068 6.2642 73.7386 6.2642C71.6705 6.2642 70.2784 7.83523 70.2784 10.2216C70.2784 12.5881 71.6705 14.1591 73.7386 14.1591ZM73.7386 13.1051C72.1676 13.1051 71.4517 11.7528 71.4517 10.2216C71.4517 8.69034 72.1676 7.31818 73.7386 7.31818C75.3097 7.31818 76.0256 8.69034 76.0256 10.2216C76.0256 11.7528 75.3097 13.1051 73.7386 13.1051ZM83.8024 10.8778C83.8024 12.3097 82.7086 12.9659 81.8336 12.9659C80.8592 12.9659 80.1632 12.25 80.1632 11.1364V6.36364H78.9899V11.2159C78.9899 13.1648 80.024 14.0994 81.4558 14.0994C82.6092 14.0994 83.3649 13.483 83.7228 12.7074H83.8024V14H84.9757V6.36364H83.8024V10.8778ZM92.5337 8.07386C92.1658 6.99006 91.3406 6.2642 89.8292 6.2642C88.2184 6.2642 87.0252 7.17898 87.0252 8.47159C87.0252 9.52557 87.6516 10.2315 89.0536 10.5597L90.3263 10.858C91.0969 11.0369 91.4599 11.4048 91.4599 11.9318C91.4599 12.5881 90.7638 13.125 89.6701 13.125C88.7106 13.125 88.109 12.7124 87.9002 11.892L86.7866 12.1705C87.06 13.468 88.1289 14.1591 89.69 14.1591C91.4648 14.1591 92.6729 13.1896 92.6729 11.8722C92.6729 10.8082 92.0067 10.1371 90.6445 9.80398L89.511 9.52557C88.6062 9.30185 88.1985 8.99858 88.1985 8.41193C88.1985 7.75568 88.8945 7.27841 89.8292 7.27841C90.8533 7.27841 91.2759 7.84517 91.4798 8.37216L92.5337 8.07386ZM97.7601 6.36364H96.1294V4.53409H94.9561V6.36364H93.8027V7.35795H94.9561V12.1307C94.9561 13.4631 96.03 14.0994 97.0243 14.0994C97.4618 14.0994 97.7402 14.0199 97.8993 13.9602L97.6607 12.9062C97.5613 12.9261 97.4022 12.9659 97.1436 12.9659C96.6266 12.9659 96.1294 12.8068 96.1294 11.8125V7.35795H97.7601V6.36364ZM102.645 14.1591C104.196 14.1591 105.329 13.3835 105.687 12.2301L104.554 11.9119C104.256 12.7074 103.564 13.1051 102.645 13.1051C101.268 13.1051 100.318 12.2152 100.263 10.5795H105.807V10.0824C105.807 7.23864 104.116 6.2642 102.525 6.2642C100.457 6.2642 99.085 7.89489 99.085 10.2415C99.085 12.5881 100.437 14.1591 102.645 14.1591ZM100.263 9.56534C100.343 8.37713 101.183 7.31818 102.525 7.31818C103.798 7.31818 104.613 8.27273 104.613 9.56534H100.263ZM109.839 14.179C111.171 14.179 111.867 13.4631 112.106 12.9659H112.165V14H113.339V8.96875C113.339 6.54261 111.489 6.2642 110.515 6.2642C109.361 6.2642 108.049 6.66193 107.452 8.05398L108.566 8.4517C108.824 7.89489 109.436 7.2983 110.555 7.2983C111.633 7.2983 112.165 7.87003 112.165 8.84943V8.8892C112.165 9.45597 111.589 9.40625 110.197 9.58523C108.78 9.76918 107.233 10.0824 107.233 11.8324C107.233 13.3239 108.387 14.179 109.839 14.179ZM110.018 13.125C109.083 13.125 108.407 12.7074 108.407 11.892C108.407 10.9972 109.222 10.7188 110.137 10.5994C110.634 10.5398 111.966 10.4006 112.165 10.1619V11.2358C112.165 12.1903 111.41 13.125 110.018 13.125ZM120.293 10.8778C120.293 12.3097 119.199 12.9659 118.324 12.9659C117.349 12.9659 116.653 12.25 116.653 11.1364V6.36364H115.48V11.2159C115.48 13.1648 116.514 14.0994 117.946 14.0994C119.099 14.0994 119.855 13.483 120.213 12.7074H120.293V14H121.466V6.36364H120.293V10.8778Z" fill="black"/>
</svg>
