<svg width="358" height="28" viewBox="0 0 358 28" fill="none" xmlns="http://www.w3.org/2000/svg">
<line opacity="0.2" x1="-4.35789e-08" y1="26.8373" x2="358" y2="26.8372" stroke="black"/>
<path d="M1.23295 14H7.45739V12.9062H2.46591V9.44602H7.05966V8.35227H2.46591V4.91193H7.37784V3.81818H1.23295V14ZM10.3161 6.36364H8.96378L11.3899 10.1818L8.96378 14H10.3161L12.1456 11.0369L13.9751 14H15.3274L12.8615 10.1818L15.3274 6.36364H13.9751L12.1456 9.4858L10.3161 6.36364ZM17.0016 16.8636H18.1749V12.8267H18.2743C18.5328 13.2443 19.03 14.1591 20.5016 14.1591C22.4107 14.1591 23.7431 12.6278 23.7431 10.2017C23.7431 7.79545 22.4107 6.2642 20.4817 6.2642C18.9902 6.2642 18.5328 7.17898 18.2743 7.5767H18.1351V6.36364H17.0016V16.8636ZM18.155 10.1818C18.155 8.47159 18.9107 7.31818 20.3425 7.31818C21.834 7.31818 22.5698 8.57102 22.5698 10.1818C22.5698 11.8125 21.8141 13.1051 20.3425 13.1051C18.9306 13.1051 18.155 11.9119 18.155 10.1818ZM26.7061 3.81818H25.5328V14H26.7061V3.81818ZM31.9574 14.1591C34.0256 14.1591 35.4176 12.5881 35.4176 10.2216C35.4176 7.83523 34.0256 6.2642 31.9574 6.2642C29.8892 6.2642 28.4972 7.83523 28.4972 10.2216C28.4972 12.5881 29.8892 14.1591 31.9574 14.1591ZM31.9574 13.1051C30.3864 13.1051 29.6705 11.7528 29.6705 10.2216C29.6705 8.69034 30.3864 7.31818 31.9574 7.31818C33.5284 7.31818 34.2443 8.69034 34.2443 10.2216C34.2443 11.7528 33.5284 13.1051 31.9574 13.1051ZM37.2086 14H38.3819V9.16761C38.3819 8.13352 39.1973 7.37784 40.3109 7.37784C40.6241 7.37784 40.9473 7.4375 41.0268 7.45739V6.2642C40.8926 6.25426 40.5843 6.24432 40.4103 6.24432C39.4956 6.24432 38.7001 6.76136 38.4217 7.51705H38.3422V6.36364H37.2086V14ZM45.3869 14.1591C46.938 14.1591 48.0716 13.3835 48.4295 12.2301L47.296 11.9119C46.9977 12.7074 46.3066 13.1051 45.3869 13.1051C44.0098 13.1051 43.0602 12.2152 43.0055 10.5795H48.5488V10.0824C48.5488 7.23864 46.8585 6.2642 45.2676 6.2642C43.1994 6.2642 41.8272 7.89489 41.8272 10.2415C41.8272 12.5881 43.1795 14.1591 45.3869 14.1591ZM43.0055 9.56534C43.085 8.37713 43.9252 7.31818 45.2676 7.31818C46.5403 7.31818 47.3556 8.27273 47.3556 9.56534H43.0055ZM50.3336 14H51.5069V9.16761C51.5069 8.13352 52.3223 7.37784 53.4359 7.37784C53.7491 7.37784 54.0723 7.4375 54.1518 7.45739V6.2642C54.0176 6.25426 53.7093 6.24432 53.5353 6.24432C52.6206 6.24432 51.8251 6.76136 51.5467 7.51705H51.4672V6.36364H50.3336V14Z" fill="black"/>
</svg>
